<svg width="25" height="25" viewBox="0 0 25 25" fill="none" xmlns="http://www.w3.org/2000/svg">
<path d="M9.05005 5.75C9.05005 4.09531 10.3954 2.75 12.05 2.75C13.7047 2.75 15.05 4.09531 15.05 5.75V8H9.05005V5.75ZM6.80005 8H3.80005C2.55786 8 1.55005 9.00781 1.55005 10.25V20C1.55005 22.4844 3.56567 24.5 6.05005 24.5H18.05C20.5344 24.5 22.55 22.4844 22.55 20V10.25C22.55 9.00781 21.5422 8 20.3 8H17.3V5.75C17.3 2.84844 14.9516 0.5 12.05 0.5C9.14849 0.5 6.80005 2.84844 6.80005 5.75V8ZM7.92505 10.25C8.22342 10.25 8.50957 10.3685 8.72054 10.5795C8.93152 10.7905 9.05005 11.0766 9.05005 11.375C9.05005 11.6734 8.93152 11.9595 8.72054 12.1705C8.50957 12.3815 8.22342 12.5 7.92505 12.5C7.62668 12.5 7.34053 12.3815 7.12955 12.1705C6.91858 11.9595 6.80005 11.6734 6.80005 11.375C6.80005 11.0766 6.91858 10.7905 7.12955 10.5795C7.34053 10.3685 7.62668 10.25 7.92505 10.25ZM15.05 11.375C15.05 11.0766 15.1686 10.7905 15.3796 10.5795C15.5905 10.3685 15.8767 10.25 16.175 10.25C16.4734 10.25 16.7596 10.3685 16.9705 10.5795C17.1815 10.7905 17.3 11.0766 17.3 11.375C17.3 11.6734 17.1815 11.9595 16.9705 12.1705C16.7596 12.3815 16.4734 12.5 16.175 12.5C15.8767 12.5 15.5905 12.3815 15.3796 12.1705C15.1686 11.9595 15.05 11.6734 15.05 11.375Z" fill="#FD5545"/>
</svg>
