<svg width="23" height="25" viewBox="0 0 23 25" fill="none" xmlns="http://www.w3.org/2000/svg">
<path d="M10.8875 3.17709C15.5202 3.17709 19.28 6.93609 19.28 11.5677C19.28 16.1993 15.5202 19.9583 10.8875 19.9583C6.25484 19.9583 2.495 16.1993 2.495 11.5677C2.495 6.93609 6.25484 3.17709 10.8875 3.17709ZM10.8875 18.0938C14.4939 18.0938 17.415 15.1734 17.415 11.5677C17.415 7.96208 14.4939 5.04168 10.8875 5.04168C7.28106 5.04168 4.36 7.96208 4.36 11.5677C4.36 15.1734 7.28106 18.0938 10.8875 18.0938ZM18.8 18.16L21.4375 20.7969L20.1188 22.1154L17.4813 19.4785L18.8 18.16Z" fill="#737373"/>
</svg>
