<svg width="25" height="25" viewBox="0 0 25 25" fill="none" xmlns="http://www.w3.org/2000/svg">
<path d="M17.75 7.7C19.45 8.7 20.25 10.5 20.25 12.5C20.25 15 17.75 17 15.25 17H12.65L12.05 20.6C12.0032 20.8293 11.8776 21.0349 11.6949 21.1811C11.5121 21.3272 11.2839 21.4047 11.05 21.4H8.35C8.27501 21.4015 8.20064 21.3861 8.13239 21.355C8.06415 21.3239 8.00378 21.2778 7.95577 21.2202C7.90775 21.1626 7.87331 21.0949 7.855 21.0222C7.83669 20.9494 7.83498 20.8735 7.85 20.8L8.05 19.4M10.25 13.5H12.75C15.25 13.5 17.75 11 17.75 8.5C17.75 5.5 15.85 3.5 12.75 3.5H7.25C6.75 3.5 6.25 4 6.25 4.5L4.25 18.5C4.25 19 4.75 19.5 5.25 19.5H8.05L9.25 14.5C9.35 13.9 9.65 13.5 10.25 13.5Z" stroke="#FD5545" stroke-width="2" stroke-linecap="round" stroke-linejoin="round"/>
</svg>
